<?xml version="1.0" encoding="UTF-8" standalone="no"?>
<!-- Created with Inkscape (http://www.inkscape.org/) -->

<svg
   xmlns:dc="http://purl.org/dc/elements/1.1/"
   xmlns:cc="http://creativecommons.org/ns#"
   xmlns:rdf="http://www.w3.org/1999/02/22-rdf-syntax-ns#"
   xmlns:svg="http://www.w3.org/2000/svg"
   xmlns="http://www.w3.org/2000/svg"
   xmlns:sodipodi="http://sodipodi.sourceforge.net/DTD/sodipodi-0.dtd"
   xmlns:inkscape="http://www.inkscape.org/namespaces/inkscape"
   width="120.11712"
   height="33.69453"
   id="svg8250"
   version="1.1"
   inkscape:version="0.48.5 r10040"
   inkscape:export-filename="/home/tom/tmp/tcweb/tcweb.org/themes/tinyce/static/images/profile.png"
   inkscape:export-xdpi="213.68454"
   inkscape:export-ydpi="213.68454"
   sodipodi:docname="Nouveau document 7">
  <defs
     id="defs8252" />
  <sodipodi:namedview
     id="base"
     pagecolor="#ffffff"
     bordercolor="#666666"
     borderopacity="1.0"
     inkscape:pageopacity="0.0"
     inkscape:pageshadow="2"
     inkscape:zoom="5.12"
     inkscape:cx="44.264463"
     inkscape:cy="3.6657826"
     inkscape:document-units="px"
     inkscape:current-layer="layer1"
     showgrid="false"
     showguides="true"
     inkscape:guide-bbox="true"
     inkscape:window-width="1366"
     inkscape:window-height="718"
     inkscape:window-x="0"
     inkscape:window-y="19"
     inkscape:window-maximized="1"
     fit-margin-top="0"
     fit-margin-left="0"
     fit-margin-right="0"
     fit-margin-bottom="0">
    <sodipodi:guide
       orientation="0,1"
       position="21.84042,21.551497"
       id="guide8275" />
    <sodipodi:guide
       orientation="0,1"
       position="13.05136,1.8249274"
       id="guide8277" />
  </sodipodi:namedview>
  <metadata
     id="metadata8255">
    <rdf:RDF>
      <cc:Work
         rdf:about="">
        <dc:format>image/svg+xml</dc:format>
        <dc:type
           rdf:resource="http://purl.org/dc/dcmitype/StillImage" />
        <dc:title></dc:title>
      </cc:Work>
    </rdf:RDF>
  </metadata>
  <g
     inkscape:label="Calque 1"
     inkscape:groupmode="layer"
     id="layer1"
     transform="translate(-390.85489,-404.08633)">
    <path
       d="m 411.90411,425.97833 c -0.38026,4.15705 -3.87946,7.41443 -8.1363,7.41443 -4.49545,0 -8.1524,-3.64372 -8.16886,-8.13523 l -4.74406,8.4121 3.80934,-0.0172 c 0,0 2.62995,4.12843 9.10358,4.12843 6.68432,0 12.14382,-5.21804 12.53587,-11.80256 l -4.39957,0 z"
       style="fill:#000000;fill-opacity:1;fill-rule:nonzero;stroke:none"
       id="path88-2"
       inkscape:connector-curvature="0" />
    <path
       d="m 409.10282,421.5208 c 3.78716,-1.74638 8.36023,-0.34376 10.48722,3.33966 2.25041,3.8909 0.9197,8.87857 -2.96047,11.14472 l 9.65839,-0.098 -1.9213,-3.29351 c 0,0 2.26185,-4.33912 -0.97658,-9.95029 -3.34144,-5.78216 -10.5906,-7.90415 -16.4883,-4.95154 l 2.20104,3.80898 z"
       style="fill:#000000;fill-opacity:1;fill-rule:nonzero;stroke:none"
       id="path90-6"
       inkscape:connector-curvature="0" />
    <path
       d="m 405.96098,426.16435 c -3.40799,-2.40673 -4.48078,-7.07066 -2.35236,-10.75409 2.24611,-3.89269 7.23092,-5.23413 11.12969,-3.00913 l -4.91183,-8.3148 -1.8909,3.30925 c 0,0 -4.89072,0.21428 -8.13129,5.82294 -3.33644,5.78287 -1.55179,13.12361 3.95636,16.75696 l 2.20033,-3.81113 z"
       style="fill:#000000;fill-opacity:1;fill-rule:nonzero;stroke:none"
       id="path92-4"
       inkscape:connector-curvature="0" />
    <path
       inkscape:connector-curvature="0"
       id="path8283"
       style="font-size:29.28650475px;font-style:normal;font-variant:normal;font-weight:normal;font-stretch:normal;text-align:start;line-height:100%;letter-spacing:0px;word-spacing:0px;writing-mode:lr-tb;text-anchor:start;fill:#204a87;fill-opacity:1;stroke:none;font-family:Linux Libertine O;-inkscape-font-specification:Linux Libertine O"
       d="m 441.0578,432.38298 0,-11.18745 c 0,-1.87433 0.29287,-2.98722 1.34718,-2.98722 l 0.6443,0 c 2.19649,0 3.57296,0.76145 4.07083,3.01651 0.32215,0 0.73216,-0.0293 0.99574,-0.14643 -0.20501,-1.34718 -0.35144,-2.84079 -0.38072,-4.15869 0,-0.0293 -0.0586,-0.0879 -0.0879,-0.0879 -0.99574,0.0879 -4.24655,0.23429 -6.56018,0.23429 l -2.51864,0 c -2.25506,0 -5.71087,-0.14644 -6.82376,-0.23429 -0.0586,0 -0.11714,0.0586 -0.11714,0.0879 -0.11715,1.3179 -0.41001,2.8408 -0.73216,4.24655 0.29286,0.11714 0.6443,0.14643 0.99574,0.14643 0.58573,-2.34292 1.93291,-3.10437 3.86581,-3.10437 l 1.43504,0 c 1.0836,0 1.37647,1.11289 1.37647,2.89936 l 0,11.27531 c 0,2.43078 -0.49787,2.57721 -2.84079,2.66507 -0.17572,0.17572 -0.17572,0.79074 0,0.96646 1.43504,-0.0293 2.89936,-0.0586 4.10011,-0.0586 1.11289,0 2.6065,0.0293 4.07082,0.0586 0.17572,-0.17572 0.17572,-0.79074 0,-0.96646 -2.34291,-0.0879 -2.84079,-0.23429 -2.84079,-2.66507" />
    <path
       inkscape:connector-curvature="0"
       id="path8285"
       style="font-size:29.28650475px;font-style:normal;font-variant:normal;font-weight:normal;font-stretch:normal;text-align:start;line-height:100%;letter-spacing:0px;word-spacing:0px;writing-mode:lr-tb;text-anchor:start;fill:#204a87;fill-opacity:1;stroke:none;font-family:Linux Libertine O;-inkscape-font-specification:Linux Libertine O"
       d="m 458.13641,433.29086 c -0.11715,-0.26358 -0.35144,-0.38072 -0.61502,-0.41001 -0.99574,1.2886 -2.25506,1.93291 -3.51438,1.93291 -2.13791,0 -3.92439,-2.16721 -3.92439,-5.59372 0,-3.22152 1.40576,-5.15443 3.33866,-5.15443 1.72791,0 1.9622,1.02503 2.07935,2.05006 0.0879,0.79073 0.49787,1.05431 1.11288,1.05431 0.61502,0 1.43504,-0.38072 1.43504,-1.28861 0,-1.61075 -1.66933,-2.78221 -4.48083,-2.78221 -2.89936,0 -6.00374,2.6065 -6.00374,6.76518 0,3.77795 2.10863,6.38446 5.79873,6.38446 1.75719,0 3.30938,-0.55645 4.7737,-2.95794" />
    <path
       inkscape:connector-curvature="0"
       id="path8287"
       style="font-size:29.28650475px;font-style:normal;font-variant:normal;font-weight:normal;font-stretch:normal;text-align:start;line-height:100%;letter-spacing:0px;word-spacing:0px;writing-mode:lr-tb;text-anchor:start;fill:#a40000;fill-opacity:1;stroke:none;font-family:Linux Libertine O;-inkscape-font-specification:Linux Libertine O"
       d="m 482.7293,419.40906 -4.59799,12.73963 -0.0879,-0.0586 -4.01226,-12.3589 c -0.52715,-1.55218 0.52716,-1.66933 1.5229,-1.75719 0.17572,-0.17572 0.17572,-0.79074 0,-0.96646 -1.20074,0.0293 -2.48935,0.0586 -3.66081,0.0586 -0.96645,0 -1.99148,-0.0293 -2.92865,-0.0586 -0.17572,0.17572 -0.17572,0.79074 0,0.96646 1.55218,0.0879 2.19649,1.02503 2.46006,1.75719 l 0.67359,1.93291 c 0.0879,0.35144 0.20501,0.6443 0.20501,0.90788 0,0.32215 -0.0586,0.55644 -0.26358,1.02503 l -3.80724,8.61023 -0.11715,-0.0293 -4.27583,-12.97392 c -0.35144,-1.02502 0.4393,-1.17146 1.46433,-1.23003 0.17571,-0.17572 0.17571,-0.79074 0,-0.96646 -0.96646,0.0293 -2.25507,0.0586 -3.39724,0.0586 -1.02503,0 -1.87434,-0.0293 -2.72364,-0.0586 -0.17572,0.17572 -0.17572,0.79074 0,0.96646 1.31789,0.0879 1.52289,0.14643 2.07934,1.69862 l 5.50586,15.844 c 0.14643,0.46858 0.29287,0.79073 0.6443,0.79073 0.38073,0 0.52716,-0.29286 0.76145,-0.79073 l 4.36369,-9.81098 c 0.23429,-0.58573 0.35144,-0.73217 0.49787,-0.73217 0.11715,0 0.23429,0.32216 0.41001,0.82003 l 3.36795,9.72312 c 0.14643,0.49787 0.32215,0.79073 0.67359,0.79073 0.32215,0 0.52716,-0.32215 0.67359,-0.76145 l 5.88659,-15.78542 c 0.35144,-0.99574 0.90788,-1.69862 2.51864,-1.78648 0.17572,-0.17572 0.17572,-0.79074 0,-0.96646 -0.84931,0.0293 -1.78648,0.0586 -2.54793,0.0586 -0.76145,0 -2.05005,-0.0293 -3.22151,-0.0586 -0.17572,0.17572 -0.17572,0.79074 0,0.96646 1.20074,0.0879 2.3722,0.20501 1.93291,1.43504" />
    <path
       inkscape:connector-curvature="0"
       id="path8289"
       style="font-size:29.28650475px;font-style:normal;font-variant:normal;font-weight:normal;font-stretch:normal;text-align:start;line-height:100%;letter-spacing:0px;word-spacing:0px;writing-mode:lr-tb;text-anchor:start;fill:#a40000;fill-opacity:1;stroke:none;font-family:Linux Libertine O;-inkscape-font-specification:Linux Libertine O"
       d="m 488.15004,427.69714 c 0.55645,-3.30937 2.6065,-3.57296 3.30938,-3.57296 1.11288,0 2.43078,0.61502 2.43078,3.07509 0,0.26358 -0.11715,0.41001 -0.4393,0.41001 l -5.30086,0.0879 m 7.67307,5.53515 c -1.0836,1.11288 -1.93291,1.58147 -3.63153,1.58147 -1.05431,0 -2.28435,-0.61502 -3.19223,-2.10863 -0.58573,-0.96645 -0.93717,-2.31363 -0.93717,-4.01225 l 7.79021,0.0586 c 0.35144,0 0.55645,-0.17572 0.55645,-0.49787 0,-2.46006 -0.8786,-5.09585 -4.94942,-5.09585 -2.54793,0 -5.8573,2.43078 -5.8573,6.88233 0,1.64004 0.41001,3.22152 1.37646,4.3344 0.99574,1.17146 2.37221,1.87434 4.48084,1.87434 2.22577,0 3.80724,-1.02503 4.9787,-2.54793 -0.0879,-0.29286 -0.26357,-0.4393 -0.61501,-0.46858" />
    <path
       inkscape:connector-curvature="0"
       id="path8291"
       style="font-size:29.28650475px;font-style:normal;font-variant:normal;font-weight:normal;font-stretch:normal;text-align:start;line-height:100%;letter-spacing:0px;word-spacing:0px;writing-mode:lr-tb;text-anchor:start;fill:#a40000;fill-opacity:1;stroke:none;font-family:Linux Libertine O;-inkscape-font-specification:Linux Libertine O"
       d="m 502.71321,425.32493 c 0.76145,-0.67359 1.64005,-0.93717 2.48936,-0.93717 1.78647,0 3.2508,2.16721 3.2508,5.008 0,3.33865 -1.34718,5.8573 -4.1294,5.8573 -0.90788,0 -1.5229,-0.64431 -2.10863,-1.37647 l 0,-7.32163 c 0,-0.61501 0.11715,-0.87859 0.49787,-1.23003 m -0.205,-0.90788 c -0.20501,0.17572 -0.29287,0.11715 -0.29287,-0.14643 l 0,-5.38872 c 0,-1.90362 0.11715,-3.07508 0.11715,-3.07508 0,-0.20501 -0.11715,-0.29287 -0.38072,-0.29287 -0.73217,0.29287 -2.92866,0.70288 -4.10011,0.79074 -0.0586,0.23429 0,0.70287 0.17571,0.87859 1.5229,0.0879 1.87434,-0.0586 1.87434,2.4015 l 0,14.29181 c 0,1.14217 -0.0293,1.66933 -0.11715,2.07934 0.14644,0.23429 0.29287,0.35144 0.64431,0.35144 0.17572,-0.14643 0.46858,-0.4393 0.67359,-0.70288 0.32215,-0.35143 0.49787,-0.35143 0.82002,-0.0586 0.6443,0.55644 1.5229,0.70288 2.57721,0.70288 2.98722,0 6.47232,-2.72365 6.47232,-7.3802 0,-3.57295 -2.63579,-5.76944 -5.18371,-5.76944 -1.25932,0 -2.37221,0.49787 -3.28009,1.31789" />
  </g>
</svg>
